PathFileType	4	(X/Y/Z)	Walk2.trc
DataRate	CameraRate	NumFrames	NumMarkers	Units	OrigDataRate	OrigDataStartFrame	OrigNumFrames
200.000000	200.000000	4	59	mm	200.000000	188	389
Frame#	Times		LFHD		RFHD		LBHD		RBHD		C7		T10		CLAV		STRN		RBack		LASI		RASI		LPSI		RPSI		RACR1		RUA1		RElbow		RFA1		RWRR		RWRU		RCAR		LACR1		LUA1		LElbow		LElbowM		LFA1		LWRR		LWRU		LCAR		RTH1		RTH3		RTH2		RTH4		RLFC		RTB1		RTB3		RTB2		RTB4		RLMAL		RMMAL		RCAL		RMT1		RMT5		RToe		LTH1		LTH3		LTH2		LTH4		LLFC		LTB1		LTB3		LTB2		LTB4		LLMAL		LMMAL		LCAL		LMT1		LMT5		LToe		RElbowM
			X1	Y1	Z1	X2	Y2	Z2	X3	Y3	Z3	X4	Y4	Z4	X5	Y5	Z5	X6	Y6	Z6	X7	Y7	Z7	X8	Y8	Z8	X9	Y9	Z9	X10	Y10	Z10	X11	Y11	Z11	X12	Y12	Z12	X13	Y13	Z13	X14	Y14	Z14	X15	Y15	Z15	X16	Y16	Z16	X17	Y17	Z17	X18	Y18	Z18	X19	Y19	Z19	X20	Y20	Z20	X21	Y21	Z21	X22	Y22	Z22	X23	Y23	Z23	X24	Y24	Z24	X25	Y25	Z25	X26	Y26	Z26	X27	Y27	Z27	X28	Y28	Z28	X29	Y29	Z29	X30	Y30	Z30	X31	Y31	Z31	X32	Y32	Z32	X33	Y33	Z33	X34	Y34	Z34	X35	Y35	Z35	X36	Y36	Z36	X37	Y37	Z37	X38	Y38	Z38	X39	Y39	Z39	X40	Y40	Z40	X41	Y41	Z41	X42	Y42	Z42	X43	Y43	Z43	X44	Y44	Z44	X45	Y45	Z45	X46	Y46	Z46	X47	Y47	Z47	X48	Y48	Z48	X49	Y49	Z49	X50	Y50	Z50	X51	Y51	Z51	X52	Y52	Z52	X53	Y53	Z53	X54	Y54	Z54	X55	Y55	Z55	X56	Y56	Z56	X57	Y57	Z57	X58	Y58	Z58	X59	Y59	Z59

188	0.94	41.882	1572.1	-65.768	47.329	1576.5	28.998	-105.33	1508.2	-85.286	-103.37	1521.1	54.864	-134.37	1389	-8.0084	-199.13	1121.6	-17.845	5.7355	1313.2	-11.408	66.82	1208.4	-4.6947	-190.04	1290	91.784	59.954	928.54	-148.49	61.087	954.01	144.85	-186.67	936.98	-43.817	-185	940.69	46.285	-66.344	1345.2	144.56	-105.6	1162.1	234.25	-167.95	1044.7	248.42	-182.66	900.85	267.1	-114.7	791.31	245.21	-176.74	792.28	280.09	-122.3	738.92	295.73	-53.373	1349.3	-167.3	-13.096	1173.2	-256.27	-6.7238	1046.2	-287.12	-41.835	1006.4	-221.4	71.581	929.22	-283.82	182.83	883.48	-214.88	154.72	845.21	-270.47	226.26	853.66	-250.56	25.453	725.83	214.92	79.045	567.52	168.13	103.02	669.62	172.14	51.704	645.41	191.97	106	490.31	141.17	184.39	352.41	68.23	208.2	181.17	71.728	175.54	264.78	125.69	196.72	265.58	66.615	191.46	61.439	99.564	204.11	71.516	17.268	131.3	24.041	62.991	308.13	41.645	39.066	280.17	26.318	111.5	370.81	48.176	66.587	-64.84	728.21	-224.81	-124.48	582.44	-159.49	-40.11	645.79	-168.78	-94.809	656.99	-186.35	-165.92	465.89	-126.67	-194.44	314.98	-50.561	-297.64	177.18	-55.447	-262.74	257.84	-109.29	-247.65	246.34	-51.885	-389.08	105.37	-83.177	-378.37	103.24	1.9663	-459.88	106.4	-51.736	-326.25	32.38	-90.872	-298.39	34.056	-12.402	-230.46	20.348	-41.078	-160.76	1013.8	155.45
189	0.945	47.716	1572.6	-64.927	53.223	1576.9	29.832	-99.498	1508.7	-84.373	-97.459	1521.5	55.776	-128.3	1389.5	-7.1292	-192.92	1122	-17.268	11.845	1313.8	-10.562	73.072	1209	-3.7828	-183.88	1290.3	92.625	66.869	928.85	-147.11	67.657	954.8	145.57	-180.01	937.22	-43.615	-178.65	941.18	46.528	-60.283	1345.5	145.39	-99.026	1162.3	235.06	-161.02	1044.8	249.24	-175.29	900.88	267.98	-107.04	791.53	246.13	-169.05	792.34	281.04	-114.44	739.18	296.73	-47.257	1349.8	-166.52	-7.6816	1173.4	-255.47	-1.7839	1046.3	-286.16	-37	1006.7	-220.35	76.034	929.02	-282.83	186.94	882.66	-213.77	158.85	844.64	-269.57	230.36	852.79	-249.4	31.823	726.62	215.32	84.634	568.13	168.33	109.22	670.04	172.83	57.672	646.11	192.2	111.88	490.83	141.38	188.61	352.06	67.373	210.64	180.59	70.969	179.72	264.69	125.23	200	265.1	65.796	192.45	61.201	99.222	204.78	70.84	16.776	131.56	24.479	63.012	308.71	39.799	38.287	280.54	25.802	111.45	371.99	45.28	65.556	-57.664	728.06	-224.06	-116.84	582.05	-158.94	-32.697	645.72	-168.01	-87.423	656.76	-185.66	-157.9	465.42	-126.33	-188.42	314.69	-50.503	-293.77	178.6	-55.693	-257.48	258.7	-109.43	-242.72	246.93	-51.963	-386.38	108.35	-83.627	-375.77	106.11	1.5093	-457	111.1	-52.167	-325.52	33.36	-90.793	-297.89	34.461	-12.456	-230.62	20.308	-40.967	-153.66	1013.8	156.31
190	0.95	53.561	1573.2	-64.08	59.125	1577.5	30.67	-93.654	1509.3	-83.464	-91.541	1522.1	56.685	-122.22	1390	-6.2632	-186.72	1122.4	-16.706	17.968	1314.4	-9.7241	79.319	1209.7	-2.8709	-177.72	1290.6	93.455	73.784	929.26	-145.7	74.203	955.7	146.25	-173.37	937.52	-43.45	-172.33	941.74	46.733	-54.202	1346	146.2	-92.412	1162.7	235.87	-154.05	1045	250.06	-167.86	901.01	268.85	-99.281	791.85	247.07	-161.28	792.49	281.99	-106.49	739.56	297.74	-41.113	1350.3	-165.74	-2.3006	1173.7	-254.67	3.0863	1046.5	-285.2	-32.235	1007.2	-219.28	80.341	928.85	-281.85	190.91	881.82	-212.72	162.77	844.03	-268.68	234.27	851.86	-248.3	38.081	727.49	215.76	90.115	568.8	168.6	115.32	670.52	173.63	63.535	646.87	192.49	117.7	491.41	141.63	192.71	351.75	66.685	212.94	180.08	70.333	183.69	264.62	124.88	203.15	264.68	65.122	193.3	61.017	98.939	205.37	70.273	16.362	131.79	24.867	63.042	309.19	38.238	37.626	280.83	25.442	111.48	373.04	42.708	64.693	-50.401	727.94	-223.3	-108.99	581.63	-158.38	-25.13	645.7	-167.23	-79.89	656.54	-184.97	-149.57	464.91	-126.01	-182.11	314.4	-50.501	-289.64	180.1	-55.965	-251.94	259.62	-109.6	-237.49	247.57	-52.086	-383.43	111.47	-84.07	-372.88	109.11	1.0436	-453.79	116.03	-52.542	-324.75	34.427	-90.679	-297.34	34.91	-12.5	-230.84	20.265	-40.853	-146.53	1014	157.16
191	0.955	59.417	1573.9	-63.228	65.036	1578.1	31.512	-87.802	1510	-82.562	-85.616	1522.7	57.589	-116.13	1390.5	-5.4124	-180.53	1123	-16.157	24.1	1315.1	-8.8963	85.558	1210.5	-1.9614	-171.54	1291.1	94.271	80.689	929.79	-144.27	80.722	956.69	146.92	-166.77	937.87	-43.318	-166.04	942.37	46.904	-48.102	1346.5	146.99	-85.756	1163.1	236.66	-147.05	1045.2	250.89	-160.37	901.23	269.72	-91.419	792.29	248	-153.42	792.74	282.93	-98.432	740.04	298.75	-34.948	1350.9	-164.96	3.0483	1174	-253.89	7.8909	1046.8	-284.24	-27.533	1007.8	-218.19	84.506	928.71	-280.89	194.74	880.96	-211.71	166.5	843.4	-267.8	238	850.87	-247.26	44.228	728.43	216.25	95.504	569.54	168.93	121.32	671.07	174.51	69.301	647.71	192.84	123.44	492.06	141.9	196.68	351.47	66.185	215.09	179.61	69.828	187.41	264.55	124.65	206.17	264.3	64.606	194.02	60.877	98.711	205.86	69.809	16.023	131.99	25.203	63.081	309.58	36.945	37.076	281.06	25.21	111.55	373.96	40.448	63.986	-43.062	727.85	-222.51	-100.91	581.18	-157.84	-17.411	645.73	-166.44	-72.211	656.32	-184.27	-140.9	464.37	-125.72	-175.49	314.12	-50.565	-285.21	181.69	-56.271	-246.11	260.59	-109.81	-231.96	248.26	-52.261	-380.21	114.73	-84.508	-369.68	112.25	0.56529	-450.21	121.16	-52.86	-323.9	35.588	-90.532	-296.72	35.415	-12.537	-231.11	20.219	-40.736	-139.38	1014.2	158.02
